<svg width="49" height="49" viewBox="0 0 49 49" fill="none" xmlns="http://www.w3.org/2000/svg">
<g clip-path="url(#clip0_38_6917)">
<path d="M19.7375 6.71729H9.20002C7.10002 6.71729 5.37502 8.44228 5.37502 10.5798C5.30002 12.6423 6.95002 14.3673 9.01252 14.4423H19.85L19.7375 6.71729Z" fill="#073042"/>
<path d="M43.625 41.0672H9.2C7.0625 41.0672 5.375 39.3422 5.375 37.2047V10.5422C5.375 12.6797 7.1 14.4047 9.2 14.4422H38.0375C38.0375 14.4422 43.6625 13.9547 43.6625 18.1922V41.0672H43.625Z" fill="#4285F4"/>
<path d="M27.5748 27.4173C29.1123 26.2548 29.4123 24.0798 28.2498 22.5798C27.6123 21.7548 26.6373 21.2298 25.5873 21.1923H25.6998C25.8873 21.1548 26.1123 21.1548 26.2998 21.1923V19.0548C26.2998 18.7923 26.1873 18.5673 25.9623 18.4548C25.6248 18.2673 25.2123 18.3798 25.0248 18.7173C24.9498 18.8298 24.9123 18.9423 24.9498 19.0923V21.2673C23.0748 21.5673 21.7623 23.3298 22.0623 25.2423V25.2798C22.2123 26.1798 22.6998 27.0048 23.4498 27.5298L17.1123 41.1048H21.2373L24.1623 34.8798C24.4998 34.1298 25.3998 33.7923 26.1873 34.1673C26.4873 34.3173 26.7498 34.5798 26.8998 34.8798L29.9373 41.1048H34.1373L27.5748 27.4173ZM25.4373 26.8173C24.2373 26.8173 23.2998 25.8423 23.2998 24.6423C23.2998 23.4423 24.2748 22.5048 25.4748 22.5423C26.0373 22.5423 26.5248 22.7673 26.9373 23.1423C27.7998 23.9673 27.7998 25.3173 26.9748 26.1798C26.5998 26.5548 26.0373 26.8173 25.4373 26.8173Z" fill="#3870B2"/>
<path d="M17.4502 8.59229H32.2252V11.2923H17.4502V8.59229Z" fill="white"/>
<path d="M24.3124 22.5047C25.4749 22.5047 26.4499 23.4797 26.4124 24.6797C26.4124 25.8422 25.4374 26.8172 24.2374 26.7797C23.0749 26.7797 22.1374 25.8047 22.1374 24.6422C22.1374 24.0797 22.3624 23.5547 22.7749 23.1422C23.1874 22.7297 23.7499 22.5047 24.3124 22.5047ZM25.1374 21.2672V19.0172C25.1374 18.7547 25.0249 18.5297 24.7999 18.4172C24.4624 18.2297 24.0499 18.3422 23.8624 18.6797C23.7874 18.7922 23.7499 18.9047 23.7874 19.0547V21.2297C21.9124 21.5297 20.5999 23.2922 20.8999 25.2047V25.2422C21.0499 26.1422 21.5374 26.9672 22.2874 27.4922L14.2999 44.6297C13.9999 45.2297 14.0374 45.9797 14.4499 46.5422C15.0499 47.4047 16.2124 47.6297 17.0749 47.0297C17.3749 46.8422 17.5999 46.5422 17.7499 46.2422L23.0749 34.8422C23.4124 34.0922 24.3124 33.7547 25.0999 34.1297C25.3999 34.2797 25.6624 34.5422 25.8124 34.8422L31.2499 46.1297C31.6999 47.0672 32.8249 47.4422 33.7624 46.9922C34.6999 46.5422 35.0749 45.4172 34.6249 44.4797L26.4124 27.4172C27.9124 26.2172 28.1749 24.0047 26.9749 22.5047C26.5249 21.9047 25.8874 21.4922 25.1374 21.2672Z" fill="#073042"/>
<path d="M30.0499 10.9923C29.4874 10.9923 29.0374 10.5798 29.0374 10.0173C29.0374 9.75483 29.1499 9.45483 29.3374 9.26733C29.7499 8.89233 30.3499 8.89233 30.7624 9.26733C30.9499 9.45483 31.0624 9.71733 31.0624 9.97983C31.0249 10.5423 30.6124 10.9548 30.0499 10.9923ZM18.9499 10.9548C18.3874 10.9548 17.9374 10.5048 17.9374 9.97983C17.9374 9.71733 18.0499 9.45483 18.2374 9.26733C18.5749 8.85483 19.2124 8.77983 19.6249 9.11733H19.6624C20.0749 9.49233 20.1124 10.1298 19.7374 10.5423L19.6249 10.6923C19.4374 10.8798 19.1749 10.9923 18.9124 10.9923M30.3499 4.91733L32.3374 1.46733C32.4499 1.27983 32.3749 1.05483 32.2249 0.904834C32.0374 0.829834 31.8499 0.867334 31.7374 1.01733L29.6749 4.57983C26.3749 3.11733 22.6249 3.11733 19.3624 4.57983L17.3374 1.05483C17.2624 0.942334 17.1124 0.829834 16.9624 0.829834C16.8124 0.829834 16.6624 0.904834 16.5874 1.05483C16.5124 1.16733 16.5124 1.35483 16.5874 1.46733L18.6124 4.91733C15.0874 6.82983 12.7999 10.4298 12.4624 14.4048H36.5374C36.2374 10.3923 33.9124 6.82983 30.3874 4.91733" fill="#3DDC84"/>
<path d="M40.1 21.8674H38.525C38.45 21.9049 38.375 21.9799 38.375 22.0924V47.0299C38.375 47.1424 38.45 47.2174 38.5625 47.2174H40.2125C42.125 47.2174 43.6625 45.6424 43.6625 43.7674V18.3799C43.6625 20.2924 42.125 21.8299 40.2125 21.8299H40.1V21.8674Z" fill="#073042"/>
</g>
<defs>
<clipPath id="clip0_38_6917">
<rect width="48" height="48" fill="white" transform="translate(0.5 0.079834)"/>
</clipPath>
</defs>
</svg>
