<svg width="49" height="49" viewBox="0 0 49 49" fill="none" xmlns="http://www.w3.org/2000/svg">
<path d="M41.1289 10.8199L26.9802 2.41992C26.1364 1.92117 25.1914 1.66992 24.2502 1.66992C23.3089 1.66992 22.3639 1.92117 21.5202 2.42367L7.3677 10.8237C5.6802 11.8249 4.6377 13.6774 4.6377 15.6837V32.4837C4.6377 34.4899 5.67645 36.3424 7.3677 37.3437L21.5164 45.7437C22.3602 46.2462 23.3014 46.4937 24.2464 46.4937C25.1877 46.4937 26.1327 46.2424 26.9764 45.7437L41.1289 37.3437C42.8164 36.3424 43.8589 34.4862 43.8589 32.4837V15.6799C43.8589 13.6774 42.8202 11.8212 41.1289 10.8199ZM30.1714 37.0512L30.1939 38.2587C30.1939 38.4049 30.1002 38.5699 29.9877 38.6299L29.2714 39.0424C29.1589 39.0987 29.0614 39.0312 29.0614 38.8849L29.0502 37.6962C28.4389 37.9512 27.8164 38.0112 27.4227 37.8537C27.3477 37.8237 27.3139 37.7149 27.3439 37.5874L27.6027 36.4962C27.6252 36.4099 27.6702 36.3237 27.7302 36.2712C27.7527 36.2487 27.7752 36.2337 27.7977 36.2224C27.8389 36.1999 27.8802 36.1962 27.9139 36.2112C28.3414 36.3537 28.8852 36.2862 29.4102 36.0237C30.0777 35.6862 30.5239 35.0037 30.5164 34.3287C30.5089 33.7137 30.1789 33.4624 29.3727 33.4549C28.3452 33.4587 27.3852 33.2562 27.3702 31.7412C27.3589 30.4962 28.0039 29.1987 29.0314 28.3812L29.0202 27.1624C29.0202 27.0124 29.1102 26.8474 29.2264 26.7874L29.9202 26.3449C30.0327 26.2887 30.1302 26.3599 30.1302 26.5062L30.1414 27.7249C30.6514 27.5224 31.0939 27.4662 31.4952 27.5599C31.5814 27.5824 31.6227 27.7024 31.5852 27.8412L31.3152 28.9212C31.2927 29.0037 31.2477 29.0862 31.1914 29.1387C31.1705 29.1597 31.1465 29.1774 31.1202 29.1912C31.0827 29.2099 31.0489 29.2137 31.0152 29.2099C30.8314 29.1687 30.3964 29.0749 29.7102 29.4199C28.9902 29.7837 28.7389 30.4099 28.7427 30.8749C28.7502 31.4299 29.0314 31.5987 30.0139 31.6137C31.3227 31.6362 31.8852 32.2062 31.9002 33.5224C31.9189 34.8124 31.2289 36.2037 30.1714 37.0512ZM40.0489 14.3637L26.6614 22.6324C24.9927 23.6074 23.7627 24.7024 23.7589 26.7162V43.2124C23.7589 44.4162 24.2464 45.1962 24.9927 45.4249C24.7489 45.4662 24.4977 45.4962 24.2502 45.4962C23.4664 45.4962 22.6939 45.2824 22.0152 44.8812L7.86645 36.4812C6.4827 35.6599 5.62395 34.1262 5.62395 32.4799V15.6799C5.62395 14.0337 6.4827 12.4999 7.86645 11.6787L22.0189 3.27867C22.6977 2.87742 23.4702 2.66367 24.2539 2.66367C25.0377 2.66367 25.8102 2.87742 26.4889 3.27867L40.6414 11.6787C41.8077 12.3724 42.5952 13.5687 42.8164 14.9149C42.3402 13.9137 41.2827 13.6437 40.0489 14.3637Z" fill="#E8E8E8"/>
<path d="M37.4201 34.1036L33.8951 36.2111C33.8014 36.2674 33.7339 36.3274 33.7339 36.4399V37.3624C33.7339 37.4749 33.8089 37.5236 33.9026 37.4674L37.4801 35.2924C37.5739 35.2361 37.5889 35.1349 37.5889 35.0224V34.2086C37.5889 34.0961 37.5139 34.0511 37.4201 34.1036Z" fill="#4FA847"/>
</svg>
