<svg width="49" height="49" viewBox="0 0 49 49" fill="none" xmlns="http://www.w3.org/2000/svg">
<g clip-path="url(#clip0_38_6161)">
<path d="M43.525 11.5923L25.4125 1.16729C25.1125 0.979785 24.7 0.904785 24.25 0.904785C23.8 0.904785 23.3875 1.01729 23.0875 1.16729L5.0875 11.6298C4.45 12.0048 4 12.9423 4 13.6548V34.5423C4 34.9548 4.075 35.4423 4.375 35.8548L44.425 12.6048C44.2 12.1548 43.8625 11.8173 43.525 11.5923Z" fill="#659AD3"/>
<path d="M4.2627 35.8174C4.4502 36.1174 4.7127 36.3799 4.9752 36.5299L23.0502 46.9924C23.3502 47.1799 23.7627 47.2549 24.2127 47.2549C24.6627 47.2549 25.0752 47.1424 25.3752 46.9924L43.3752 36.5299C44.0127 36.1549 44.4627 35.2174 44.4627 34.5049V13.6174C44.4627 13.2799 44.4252 12.9049 44.2377 12.5674L4.2627 35.8174Z" fill="#03599C"/>
<path d="M32.2375 28.6173C30.6625 31.3923 27.6625 33.2673 24.25 33.2673C19.1875 33.2673 15.0625 29.1423 15.0625 24.0798C15.0625 19.0173 19.1875 14.8923 24.25 14.8923C27.6625 14.8923 30.6625 16.7673 32.2375 19.5798L37.1125 16.7673C34.5625 12.3048 29.7625 9.26733 24.25 9.26733C16.075 9.26733 9.4375 15.9048 9.4375 24.0798C9.4375 32.2548 16.075 38.8923 24.25 38.8923C29.725 38.8923 34.525 35.8923 37.075 31.4673L32.2375 28.6173Z" fill="white"/>
</g>
<defs>
<clipPath id="clip0_38_6161">
<rect width="48" height="48" fill="white" transform="translate(0.25 0.079834)"/>
</clipPath>
</defs>
</svg>
