<svg width="49" height="49" viewBox="0 0 49 49" fill="none" xmlns="http://www.w3.org/2000/svg">
<g clip-path="url(#clip0_38_6927)">
<path d="M15.9599 28.8717C15.8738 28.7218 15.8141 28.5581 15.7837 28.3879C15.8174 28.5574 15.8774 28.7206 15.9599 28.8717ZM16.1767 29.1391C16.2599 29.2216 16.3537 29.2932 16.4576 29.3446C16.3538 29.2915 16.2592 29.2221 16.1774 29.1391H16.1767Z" fill="#083042"/>
<path d="M24.6281 38.3175H24.5756C24.0497 38.3197 23.5319 38.1886 23.0704 37.9365L12.5021 32.0303C11.8785 31.6808 11.4949 31.0328 11.4949 30.3326V18.3154C11.4949 17.8005 11.5882 17.3066 11.8061 16.8746L3.5426 12.2756C3.20023 12.9956 3.02398 13.8086 3.0341 14.6629V34.5105C3.04015 35.0846 3.19799 35.6468 3.49161 36.1401C3.78522 36.6334 4.20415 37.0402 4.70585 37.3193L22.1362 47.0738C22.905 47.5058 23.7664 47.7116 24.6176 47.7116V47.7015C24.6382 46.4565 24.6281 41.4656 24.6281 38.3175Z" fill="#083042"/>
<path d="M32.9224 19.0549L32.8598 18.9626C32.808 18.8906 32.7566 18.8287 32.7049 18.7571C32.7566 18.8186 32.808 18.891 32.8598 18.9626C32.8853 18.9901 32.9064 19.021 32.9224 19.0549ZM24.2231 14.2399C24.2756 14.2399 24.3173 14.2297 24.3694 14.2297C24.3173 14.2399 24.2651 14.2399 24.2231 14.2399Z" fill="#3DDB85"/>
<path d="M11.796 16.8638C12.0279 16.3838 12.3964 15.983 12.8553 15.7118L22.8003 9.89813C23.2559 9.63042 23.7735 9.48672 24.3019 9.48132C24.8302 9.47592 25.3507 9.60903 25.8116 9.86738L35.8608 15.4958C36.3119 15.7474 36.6991 16.0994 36.9926 16.5244L45.1215 11.7199C44.638 11.0239 44.0026 10.4468 43.2633 10.0324L26.6625 0.741381C25.9026 0.316805 25.0449 0.0981898 24.1744 0.107201C23.304 0.116213 22.4511 0.352539 21.7001 0.792756L5.28709 10.3819C4.52954 10.8245 3.92203 11.484 3.54297 12.2753L11.796 16.8638Z" fill="#3DDC84"/>
<path d="M15.979 19.1794C16 19.1381 16.0206 19.0969 16.042 19.0669C16.0206 19.1077 16.0004 19.1381 15.979 19.1794Z" fill="#3DDB85"/>
<path d="M45.1109 11.7197L36.9821 16.5242C37.2933 16.9769 37.4804 17.5116 37.4902 18.0576V29.4988C37.4965 30.0229 37.3633 30.5392 37.1043 30.9948C36.8454 31.4504 36.4699 31.8289 36.0164 32.0916L26.0707 37.906C25.6317 38.1621 25.1353 38.3036 24.6273 38.3174C24.6382 41.4557 24.6382 46.4462 24.6172 47.6912V47.7014C25.4889 47.6917 26.3435 47.4577 27.0986 47.0219L43.5119 37.4222C45.0382 36.5271 45.9727 34.9011 45.9517 33.1416V14.2611C45.9412 13.3454 45.6299 12.4709 45.1109 11.7197Z" fill="#4285F4"/>
<path d="M33.1112 28.2749C33.1007 28.2959 33.1007 28.3165 33.0902 28.3379C33.102 28.3188 33.1092 28.2972 33.1112 28.2749ZM33.007 19.1898C32.9856 19.138 32.9545 19.0968 32.9234 19.0454C32.9545 19.0968 32.986 19.1485 33.007 19.1898ZM25.5527 33.2958L32.2176 29.3965L25.5527 33.2965V33.2958ZM33.0276 28.5115C33.0066 28.5633 32.9755 28.6147 32.9541 28.6664C32.9755 28.6045 32.9961 28.5528 33.0276 28.5115Z" fill="#4285F4"/>
<path d="M15.9493 19.2715C15.8648 19.4714 15.8123 19.6833 15.7937 19.8996C15.7832 19.9813 15.7832 20.0638 15.7832 20.1568V28.213C15.7832 28.2745 15.7832 28.3262 15.7937 28.3881C15.8147 28.5625 15.877 28.7275 15.97 28.8718C16.0326 28.9746 16.105 29.0563 16.1781 29.1388C16.2613 29.2213 16.3543 29.293 16.4578 29.3451L23.5386 33.3062C23.8466 33.4765 24.1931 33.5649 24.5451 33.5631H24.6182C24.9483 33.5519 25.27 33.4564 25.5527 33.2856L32.2176 29.386C32.2592 29.3653 32.2903 29.3342 32.332 29.314C32.4047 29.2626 32.4775 29.2108 32.5397 29.149C32.6372 29.0605 32.7276 28.9645 32.8093 28.861C32.8611 28.789 32.9132 28.7173 32.9548 28.645C32.9856 28.594 33.007 28.5422 33.0272 28.4905C33.0482 28.4398 33.0797 28.3776 33.1003 28.3161C33.1105 28.2951 33.1105 28.2745 33.121 28.2542C33.1838 28.0544 33.2153 27.8461 33.2143 27.6366V19.9712C33.2143 19.8276 33.1933 19.6937 33.1626 19.5602C33.142 19.4672 33.1101 19.3847 33.0793 19.3022L33.0171 19.1792C32.9965 19.1275 32.9646 19.0866 32.9338 19.0348L32.8716 18.9426C32.8198 18.8702 32.7677 18.8087 32.716 18.7367C32.5468 18.5397 32.3426 18.3756 32.1137 18.253L25.3765 14.4775C25.2602 14.412 25.1385 14.3568 25.0127 14.3125C24.8439 14.261 24.6695 14.23 24.4933 14.2202H24.3583C24.307 14.2202 24.2653 14.2202 24.2136 14.23C24.0943 14.2406 23.9761 14.2613 23.8603 14.2918C23.8397 14.302 23.8191 14.302 23.7981 14.3128C23.6425 14.3541 23.497 14.4257 23.3515 14.5078L16.6866 18.4078C16.4928 18.5211 16.3233 18.6715 16.1878 18.8503C16.1365 18.9223 16.0843 18.9943 16.0427 19.0663C16.0221 19.1076 16.0015 19.1383 15.9805 19.1796L15.9493 19.2715Z" fill="#D6F0FF"/>
<path d="M24.6171 33.5628H24.5444C24.1923 33.5645 23.8456 33.4762 23.5371 33.3063L16.4571 29.3448C16.3554 29.2881 16.2612 29.2189 16.1766 29.1389C16.0955 29.0596 16.0256 28.9695 15.9689 28.8711C15.8827 28.7213 15.8231 28.5576 15.7926 28.3874C15.7818 28.3263 15.7818 28.2745 15.7818 28.213V20.1561C15.7818 20.074 15.7818 19.9818 15.7926 19.8989C15.8125 19.6833 15.8646 19.4714 15.9483 19.2711L14.0376 18.109L11.7951 16.864C11.5874 17.296 11.4839 17.7895 11.4839 18.3044V30.322C11.4901 30.6681 11.5862 31.0065 11.7627 31.3042C11.9392 31.6019 12.1901 31.8486 12.4908 32.02L23.0496 37.936C23.5094 38.1925 24.0284 38.3239 24.5549 38.317H24.6074C24.6074 36.7836 24.5965 35.6931 24.5965 35.6931L24.6171 33.5628Z" fill="#083042"/>
<path d="M24.6171 33.5628H24.5444C24.1923 33.5645 23.8456 33.4762 23.5371 33.3063L16.4571 29.3448C16.3554 29.2881 16.2612 29.2189 16.1766 29.1389C16.0955 29.0596 16.0256 28.9695 15.9689 28.8711C15.8827 28.7213 15.8231 28.5576 15.7926 28.3874C15.7818 28.3263 15.7818 28.2745 15.7818 28.213V20.1561C15.7818 20.074 15.7818 19.9818 15.7926 19.8989C15.8125 19.6833 15.8646 19.4714 15.9483 19.2711L14.0376 18.109L11.7951 16.864C11.5874 17.296 11.4839 17.7895 11.4839 18.3044V30.322C11.4901 30.6681 11.5862 31.0065 11.7627 31.3042C11.9392 31.6019 12.1901 31.8486 12.4908 32.02L23.0496 37.936C23.5094 38.1925 24.0284 38.3239 24.5549 38.317H24.6074C24.6074 36.7836 24.5965 35.6931 24.5965 35.6931L24.6171 33.5628Z" fill="#041619"/>
<path d="M35.8499 15.4958L25.8003 9.86707C25.3394 9.60888 24.819 9.4759 24.2907 9.48136C23.7625 9.48682 23.2449 9.63054 22.7894 9.8982L12.8444 15.7122C12.3829 15.9805 12.0135 16.3822 11.7847 16.8646L14.0384 18.1096L15.9483 19.2717L15.979 19.1794C16 19.1378 16.0207 19.0969 16.0413 19.0662C16.0829 18.9942 16.135 18.9222 16.1868 18.8502C16.3218 18.6751 16.4879 18.5314 16.6855 18.4077L23.35 14.5077C23.4925 14.4278 23.6414 14.3626 23.7967 14.3127C23.8177 14.3026 23.8383 14.3026 23.8589 14.2917C23.9744 14.2602 24.0925 14.2399 24.2118 14.2302C24.2635 14.2302 24.3052 14.2197 24.3573 14.2197H24.4923C24.6682 14.2309 24.8422 14.2613 25.0113 14.3119C25.1388 14.3524 25.2607 14.4076 25.3747 14.4773L32.1119 18.2536C32.3393 18.3786 32.5434 18.5422 32.7149 18.7369C32.7663 18.7984 32.8188 18.8708 32.8702 18.9424L32.9328 19.0347L34.6559 17.8932L36.9918 16.5042C36.6907 16.1026 36.3067 15.7426 35.8499 15.4958Z" fill="#3DDB85"/>
<path d="M35.8499 15.4958L25.8003 9.86707C25.3394 9.60888 24.819 9.4759 24.2907 9.48136C23.7625 9.48682 23.2449 9.63054 22.7894 9.8982L12.8444 15.7122C12.3829 15.9805 12.0135 16.3822 11.7847 16.8646L14.0384 18.1096L15.9483 19.2717L15.979 19.1794C16 19.1378 16.0207 19.0969 16.0413 19.0662C16.0829 18.9942 16.135 18.9222 16.1868 18.8502C16.3218 18.6751 16.4879 18.5314 16.6855 18.4077L23.35 14.5077C23.4925 14.4278 23.6414 14.3626 23.7967 14.3127C23.8177 14.3026 23.8383 14.3026 23.8589 14.2917C23.9744 14.2602 24.0925 14.2399 24.2118 14.2302C24.2635 14.2302 24.3052 14.2197 24.3573 14.2197H24.4923C24.6682 14.2309 24.8422 14.2613 25.0113 14.3119C25.1388 14.3524 25.2607 14.4076 25.3747 14.4773L32.1119 18.2536C32.3393 18.3786 32.5434 18.5422 32.7149 18.7369C32.7663 18.7984 32.8188 18.8708 32.8702 18.9424L32.9328 19.0347L34.6559 17.8932L36.9918 16.5042C36.6907 16.1026 36.3067 15.7426 35.8499 15.4958Z" fill="#37BF6E"/>
<path d="M32.9224 19.0557C32.9536 19.1067 32.9746 19.1479 33.0053 19.1997L33.0679 19.3231C33.1553 19.5352 33.2011 19.7622 33.2029 19.9917V27.6574C33.2037 27.8668 33.1721 28.075 33.1092 28.2747C33.0991 28.2949 33.0991 28.3159 33.0886 28.3362C33.0688 28.3964 33.0446 28.455 33.0162 28.5117C32.9948 28.5623 32.9637 28.6141 32.9431 28.6654C32.9018 28.7378 32.8497 28.8094 32.7976 28.8818C32.7159 28.9851 32.6257 29.0813 32.5279 29.1694C32.4657 29.2313 32.3929 29.2827 32.3202 29.3344C32.2786 29.3547 32.2478 29.3858 32.2062 29.4064L25.5409 33.3057C25.2543 33.4675 24.9349 33.5626 24.6064 33.5839V35.7136C24.6064 35.7136 24.6064 36.8044 24.6169 38.3374C25.1257 38.3284 25.6233 38.1866 26.0603 37.9261L36.0053 32.1121C36.9297 31.5672 37.4903 30.5791 37.4798 29.5197V18.0781C37.4697 17.5223 37.2829 16.9973 36.9717 16.5447L34.6351 17.9341L32.9224 19.0557Z" fill="#4285F4"/>
<path d="M32.9224 19.0557C32.9536 19.1067 32.9746 19.1479 33.0053 19.1997L33.0679 19.3231C33.1553 19.5352 33.2011 19.7622 33.2029 19.9917V27.6574C33.2037 27.8668 33.1721 28.075 33.1092 28.2747C33.0991 28.2949 33.0991 28.3159 33.0886 28.3362C33.0688 28.3964 33.0446 28.455 33.0162 28.5117C32.9948 28.5623 32.9637 28.6141 32.9431 28.6654C32.9018 28.7378 32.8497 28.8094 32.7976 28.8818C32.7159 28.9851 32.6257 29.0813 32.5279 29.1694C32.4657 29.2313 32.3929 29.2827 32.3202 29.3344C32.2786 29.3547 32.2478 29.3858 32.2062 29.4064L25.5409 33.3057C25.2543 33.4675 24.9349 33.5626 24.6064 33.5839V35.7136C24.6064 35.7136 24.6064 36.8044 24.6169 38.3374C25.1257 38.3284 25.6233 38.1866 26.0603 37.9261L36.0053 32.1121C36.9297 31.5672 37.4903 30.5791 37.4798 29.5197V18.0781C37.4697 17.5223 37.2829 16.9973 36.9717 16.5447L34.6351 17.9341L32.9224 19.0557Z" fill="#3870B2"/>
<path d="M23.8083 14.323C23.6523 14.3642 23.5068 14.4362 23.362 14.518L16.6968 18.418L23.3613 14.5187C23.4999 14.4327 23.6502 14.367 23.8075 14.3237L23.8083 14.323Z" fill="#D6F0FF"/>
<path opacity="0.1" d="M23.8083 14.323C23.6523 14.3642 23.5068 14.4362 23.362 14.518L16.6968 18.418L23.3613 14.5187C23.4999 14.4327 23.6502 14.367 23.8075 14.3237L23.8083 14.323Z" fill="black"/>
<path d="M33.0681 19.3132C33.1002 19.3972 33.1277 19.4828 33.1506 19.5697C33.13 19.4876 33.0981 19.4055 33.0674 19.3132H33.0681Z" fill="#D6F0FF"/>
<path opacity="0.1" d="M33.0681 19.3132C33.1002 19.3972 33.1277 19.4828 33.1506 19.5697C33.13 19.4876 33.0981 19.4055 33.0674 19.3132H33.0681Z" fill="black"/>
</g>
<defs>
<clipPath id="clip0_38_6927">
<rect width="48" height="48" fill="white" transform="translate(0.5 0.079834)"/>
</clipPath>
</defs>
</svg>
