<svg width="49" height="49" viewBox="0 0 49 49" fill="none" xmlns="http://www.w3.org/2000/svg">
<g clip-path="url(#clip0_38_6899)">
<path d="M7.80541 42.876L4.03516 0.586914H45.4652L41.6912 42.8697L24.725 47.5733L7.80541 42.876Z" fill="#1572B6"/>
<path d="M24.7505 43.9782L38.4601 40.1772L41.6855 4.04443H24.7505V43.9782Z" fill="#33A9DC"/>
<path d="M24.7505 19.3657H31.6137L32.0877 14.0545H24.7505V8.86792H37.7562L37.6317 10.2595L36.3567 24.5523H24.7505V19.3657Z" fill="white"/>
<path d="M24.7814 32.8357L24.7585 32.8425L18.9824 31.2829L18.613 27.1462H13.4072L14.1336 35.2901L24.7577 38.2387L24.7814 38.232V32.8357Z" fill="#EBEBEB"/>
<path d="M31.1727 24.333L30.5479 31.2788L24.7632 32.8403V38.2365L35.3959 35.2898L35.4739 34.4134L36.3762 24.333H31.1727Z" fill="white"/>
<path d="M24.7681 8.86792V14.0545H12.2401L12.1363 12.889L11.9 10.2595L11.7759 8.86792H24.7681ZM24.7505 19.3664V24.553H19.0471L18.9433 23.3875L18.7066 20.758L18.5829 19.3664H24.7505Z" fill="#EBEBEB"/>
</g>
<defs>
<clipPath id="clip0_38_6899">
<rect width="48" height="48" fill="white" transform="translate(0.75 0.079834)"/>
</clipPath>
</defs>
</svg>
