<svg width="49" height="49" viewBox="0 0 49 49" fill="none" xmlns="http://www.w3.org/2000/svg">
<g clip-path="url(#clip0_38_6145)">
<path d="M17.5625 48.4548C22.025 48.4548 25.625 44.8548 25.625 40.3923V32.3298H17.5625C13.1 32.3298 9.5 35.9298 9.5 40.3923C9.5 44.8548 13.1 48.4548 17.5625 48.4548Z" fill="#0ACF83"/>
<path d="M9.5 24.2673C9.5 19.8048 13.1 16.2048 17.5625 16.2048H25.625V32.3298H17.5625C13.1 32.3298 9.5 28.7298 9.5 24.2673Z" fill="#A259FF"/>
<path d="M9.5 8.14233C9.5 3.67983 13.1 0.079834 17.5625 0.079834H25.625V16.2048H17.5625C13.1 16.2048 9.5 12.6048 9.5 8.14233Z" fill="#F24E1E"/>
<path d="M25.625 0.079834H33.6875C38.15 0.079834 41.75 3.67983 41.75 8.14233C41.75 12.6048 38.15 16.2048 33.6875 16.2048H25.625V0.079834Z" fill="#FF7262"/>
<path d="M41.75 24.2673C41.75 28.7298 38.15 32.3298 33.6875 32.3298C29.225 32.3298 25.625 28.7298 25.625 24.2673C25.625 19.8048 29.225 16.2048 33.6875 16.2048C38.15 16.2048 41.75 19.8048 41.75 24.2673Z" fill="#1ABCFE"/>
</g>
<defs>
<clipPath id="clip0_38_6145">
<rect width="48" height="48" fill="white" transform="translate(0.5 0.079834)"/>
</clipPath>
</defs>
</svg>
