<svg width="49" height="49" viewBox="0 0 49 49" fill="none" xmlns="http://www.w3.org/2000/svg">
<g clip-path="url(#clip0_38_6964)">
<path d="M47.2764 21.9716L26.6079 1.30382C25.4184 0.11357 23.4879 0.11357 22.2965 1.30382L18.005 5.59607L23.4493 11.0403C24.7149 10.6132 26.1654 10.8997 27.1738 11.9081C28.1874 12.9228 28.4716 14.3857 28.034 15.6554L33.281 20.9028C34.5504 20.4652 36.0155 20.7479 37.0288 21.7634C38.4463 23.1798 38.4463 25.4759 37.0288 26.8931C36.6919 27.2301 36.2919 27.4974 35.8517 27.6798C35.4115 27.8622 34.9397 27.9561 34.4632 27.9561C33.9867 27.9561 33.5149 27.8622 33.0747 27.6798C32.6344 27.4974 32.2345 27.2301 31.8976 26.8931C31.3915 26.3867 31.0465 25.7418 30.9061 25.0398C30.7656 24.3378 30.836 23.6098 31.1083 22.9477L26.2153 18.0547L26.2145 30.9326C26.5695 31.1074 26.8936 31.3389 27.1741 31.6181C28.5909 33.0344 28.5909 35.3298 27.1741 36.7492C25.757 38.1656 23.4601 38.1656 22.0445 36.7492C20.6278 35.3302 20.6278 33.0348 22.0445 31.6181C22.3839 31.2781 22.7877 31.0091 23.2321 30.8268V17.8297C22.7873 17.6479 22.3835 17.3787 22.0445 17.0381C20.9713 15.9656 20.7129 14.3906 21.2634 13.0721L15.896 7.7047L1.72401 21.8759C1.15225 22.4479 0.831055 23.2235 0.831055 24.0322C0.831055 24.8409 1.15225 25.6165 1.72401 26.1884L22.3929 46.8562C23.5831 48.0464 25.5129 48.0464 26.705 46.8562L47.2768 26.2844C47.8484 25.7123 48.1695 24.9367 48.1694 24.1279C48.1693 23.3192 47.8481 22.5436 47.2764 21.9716Z" fill="#F34F29"/>
</g>
<defs>
<clipPath id="clip0_38_6964">
<rect width="48" height="48" fill="white" transform="translate(0.5 0.079834)"/>
</clipPath>
</defs>
</svg>
