<svg width="49" height="49" viewBox="0 0 49 49" fill="none" xmlns="http://www.w3.org/2000/svg">
<g clip-path="url(#clip0_38_6892)">
<path d="M7.88908 42.7833L4.13721 0.702637H45.3632L41.6072 42.7769L24.7251 47.4569L7.88908 42.7833Z" fill="#E44D26"/>
<path d="M24.75 43.8798L38.3917 40.0976L41.6014 4.14331H24.75V43.8798Z" fill="#F16529"/>
<path d="M24.7502 19.7504H17.9207L17.449 14.4652H24.7502V9.30444H11.8086L11.9323 10.6889L13.2006 24.9116H24.7502V19.7504ZM24.7502 33.1541L24.7273 33.1604L18.9797 31.6079L18.6126 27.4923H13.4312L14.1542 35.5957L24.7266 38.5304L24.7502 38.5241V33.1541Z" fill="#EBEBEB"/>
<path d="M24.7319 19.7504V24.9116H31.0871L30.4882 31.6049L24.7319 33.1586V38.5282L35.3126 35.5957L35.3902 34.7238L36.6029 21.1364L36.7286 19.7504H35.3381H24.7319ZM24.7319 9.30444V14.4652H37.1984L37.3019 13.3057L37.5374 10.6889L37.6608 9.30444H24.7319Z" fill="white"/>
</g>
<defs>
<clipPath id="clip0_38_6892">
<rect width="48" height="48" fill="white" transform="translate(0.75 0.079834)"/>
</clipPath>
</defs>
</svg>
