<svg width="49" height="49" viewBox="0 0 49 49" fill="none" xmlns="http://www.w3.org/2000/svg">
<g clip-path="url(#clip0_38_6956)">
<path d="M18.3565 36.8749C18.3565 36.8749 16.5689 37.9151 19.6304 38.2661C23.3399 38.6899 25.2355 38.6291 29.3222 37.8566C29.3222 37.8566 30.3989 38.5297 31.8996 39.1132C22.735 43.0395 11.1591 38.8856 18.3565 36.8749ZM17.236 31.7505C17.236 31.7505 15.2305 33.2351 18.2946 33.5524C22.2572 33.9615 25.3859 33.9949 30.8024 32.9524C30.8024 32.9524 31.5497 33.7117 32.7269 34.1265C21.6486 37.3665 9.30961 34.3815 17.236 31.7505Z" fill="#0074BD"/>
<path d="M26.6759 23.0565C28.9353 25.6571 26.0834 27.9952 26.0834 27.9952C26.0834 27.9952 31.8168 25.0361 29.1843 21.3288C26.7247 17.8732 24.8392 16.1568 35.0474 10.2363C35.0474 10.2367 19.0233 14.2376 26.6759 23.0565Z" fill="#EA2D2E"/>
<path d="M38.7959 40.6657C38.7959 40.6657 40.1193 41.757 37.3379 42.6003C32.0497 44.2023 15.3232 44.6853 10.6777 42.6645C9.00854 41.9377 12.1398 40.9301 13.1249 40.7175C14.152 40.4951 14.7385 40.5356 14.7385 40.5356C12.8812 39.228 2.73366 43.1043 9.58491 44.2162C28.2678 47.2447 43.6413 42.8523 38.7959 40.6657ZM19.2168 26.4401C19.2168 26.4401 10.7095 28.461 16.2044 29.1956C18.5249 29.5061 23.1487 29.4348 27.4585 29.0733C30.9798 28.7775 34.5134 28.1456 34.5134 28.1456C34.5134 28.1456 33.2729 28.6777 32.3744 29.2905C23.7337 31.5633 7.04541 30.5047 11.8503 28.1812C15.9123 26.2166 19.2168 26.4401 19.2168 26.4401ZM34.4782 34.9702C43.261 30.4076 39.1998 26.0227 36.3652 26.6133C35.6722 26.7577 35.3613 26.8833 35.3613 26.8833C35.3613 26.8833 35.6193 26.4787 36.1113 26.3047C41.7187 24.3341 46.0304 32.1183 34.3027 35.2016C34.3027 35.2008 34.4373 35.079 34.4782 34.9702Z" fill="#0074BD"/>
<path d="M29.1841 0.675049C29.1841 0.675049 34.0471 5.54105 24.5704 13.0212C16.9707 19.0234 22.8376 22.4449 24.5678 26.3558C20.1312 22.3534 16.8769 18.8295 19.0598 15.5502C22.2653 10.7374 31.1457 8.40305 29.1841 0.675049Z" fill="#EA2D2E"/>
<path d="M20.08 47.3378C28.5085 47.8767 41.455 47.0378 41.7614 43.0493C41.7614 43.0493 41.1723 44.5613 34.795 45.7609C27.6003 47.1154 18.7248 46.9576 13.4624 46.0887C13.4624 46.0891 14.5405 46.9816 20.08 47.3378Z" fill="#0074BD"/>
</g>
<defs>
<clipPath id="clip0_38_6956">
<rect width="48" height="48" fill="white" transform="translate(0.5 0.079834)"/>
</clipPath>
</defs>
</svg>
