<svg width="49" height="49" viewBox="0 0 49 49" fill="none" xmlns="http://www.w3.org/2000/svg">
<g clip-path="url(#clip0_38_6908)">
<path d="M1.27783 0.60791H48.2218V47.5523H1.27783V0.60791Z" fill="#F0DB4F"/>
<path d="M44.3801 36.3559C44.0362 34.2143 42.6397 32.4154 38.5031 30.738C37.0661 30.0777 35.4641 29.6048 34.9867 28.5158C34.8172 27.882 34.7947 27.525 34.902 27.1414C35.2098 25.8964 36.696 25.5083 37.8738 25.8653C38.6325 26.1195 39.3506 26.7042 39.7837 27.6368C41.8095 26.325 41.8053 26.3337 43.2198 25.4322C42.702 24.6293 42.4256 24.2588 42.0866 23.9153C40.8682 22.5544 39.2081 21.8535 36.5531 21.9072L35.1701 22.086C33.8448 22.4209 32.5818 23.1165 31.8412 24.0492C29.619 26.5707 30.2527 30.9837 32.9568 32.7998C35.6208 34.7993 39.5343 35.2542 40.0342 37.1239C40.5206 39.4129 38.352 40.1539 36.1965 39.8907C34.608 39.5603 33.7245 38.7529 32.7693 37.2848C31.0113 38.3022 31.0113 38.3022 29.2038 39.3417C29.6325 40.2788 30.0828 40.7029 30.8013 41.5148C34.2018 44.964 42.7113 44.7945 44.2376 39.5738C44.2995 39.3945 44.7105 38.199 44.3801 36.3559ZM26.7982 22.1835H22.4073L22.3893 33.5355C22.3893 35.9498 22.5142 38.163 22.1216 38.8414C21.4792 40.1757 19.8146 40.0103 19.056 39.7515C18.2838 39.372 17.8912 38.8324 17.4363 38.0697C17.3115 37.8507 17.2177 37.6812 17.1862 37.668L13.6162 39.8543C14.2098 41.0727 15.0843 42.1302 16.2045 42.8172C17.8777 43.8214 20.1266 44.1293 22.4786 43.5893C24.0093 43.1434 25.3301 42.2198 26.0216 40.8139C27.0213 38.9708 26.8068 36.7399 26.7978 34.2724C26.8203 30.2468 26.7982 26.2219 26.7982 22.1835Z" fill="#323330"/>
</g>
<defs>
<clipPath id="clip0_38_6908">
<rect width="48" height="48" fill="white" transform="translate(0.75 0.079834)"/>
</clipPath>
</defs>
</svg>
