<svg width="400" height="126" viewBox="0 0 400 126" fill="none" xmlns="http://www.w3.org/2000/svg">
<path d="M306 24.6132C302.267 27.0131 295.333 33.2798 290.4 38.6131C285.467 43.8131 280.8 48.0798 280 48.0798C279.067 48.0798 265.734 52.8798 250.134 58.6131C217.334 70.8798 216 71.4131 213.2 70.8798C212 70.7465 210.667 71.5465 210.267 72.6131C209.467 74.7465 201.467 79.4131 200.534 78.3465C199.467 77.4131 206 63.8131 211.2 55.4131C214 51.2798 215.867 47.5465 215.6 47.1465C214.667 46.2131 205.867 58.8798 201.867 67.0131C199.067 72.7465 197.334 74.6131 194.667 75.2798C192.667 75.6798 187.6 79.1465 183.2 83.0131C178.667 87.1465 176 89.0131 176.534 87.4131C179.467 80.2131 175.067 77.6798 168.133 82.6131C165.734 84.3465 163.867 84.8798 163.333 84.0798C161.867 81.8131 156.8 82.6131 152 85.9465L147.333 89.0131L145.734 85.2798C143.734 80.4798 142 80.4798 134.267 85.4131C129.6 88.3465 128 88.8798 128 87.2798C128 83.9465 124.267 83.6798 119.2 86.6131C114.534 89.4131 114.534 89.4131 115.334 86.7465C116 84.6131 115.6 84.0798 113.334 84.0798C110.267 84.0798 106.8 86.0798 96.5335 93.6798C92.8002 96.4798 89.3335 98.7465 88.9335 98.7465C86.5335 98.7465 88.6668 95.0131 94.6668 88.6131C100.8 82.0798 103.067 77.4131 100.133 77.4131C99.4668 77.4131 95.4668 81.2798 91.3335 85.9465C81.0668 97.4131 73.3335 100.613 73.3335 93.1465C73.3335 91.4131 78.6668 84.8798 87.0668 76.2131C103.867 58.4798 117.867 35.9465 111.867 36.0798C106.133 36.2132 82.4002 65.8131 73.3335 84.0798C70.1335 90.6131 56.1335 103.413 52.2668 103.413C50.5335 103.413 50.1335 102.48 50.5335 99.4131C51.0668 94.0798 53.6002 89.5465 58.5335 84.8798C62.9335 80.7465 64.2668 77.1465 60.4002 80.2131C58.2668 81.9465 58.1335 81.8131 59.8668 79.8131C60.8002 78.4798 62.1335 77.8131 62.8002 78.0798C64.1335 79.0131 70.2668 70.7465 77.7335 58.0798C83.4668 48.3465 92.5335 26.7465 91.3335 25.6798C88.6668 23.0131 66.1335 44.2131 49.2002 65.4131C34.9335 83.2798 17.3335 109.28 17.3335 112.613C17.3335 114.746 18.1335 114.08 20.4002 110.08C24.2668 103.28 36.0002 85.4131 36.5335 85.4131C36.8002 85.4131 35.2002 88.7465 33.0668 92.8798C27.2002 104.613 28.4002 108.613 36.2668 104.613C38.6668 103.413 42.4002 100.88 44.5335 98.8798L48.2668 95.4131L47.4668 99.5465C46.4002 104.48 49.3335 108.48 53.0668 107.146C54.2668 106.746 58.6668 103.413 62.8002 99.9465C69.6002 94.2131 70.4002 93.8131 71.0668 96.0798C72.0002 99.6798 75.6002 100.746 80.5335 99.0131C83.8668 97.6798 84.8002 97.8131 85.7335 99.4131C87.6002 102.88 91.2002 101.68 101.334 94.0798C111.733 86.0798 115.2 85.4131 108.267 92.4798C104 96.8798 102.8 100.08 105.334 100.08C106 100.08 107.6 98.6131 108.8 96.7465C110 94.8798 111.334 93.5465 111.6 93.9465C112 94.3465 114.667 92.7465 117.733 90.6131C126.267 84.4798 128.267 85.9465 121.334 93.2798C114.4 100.48 118.267 100.346 127.467 93.2798C134.934 87.4131 135.867 86.8798 134.534 89.9465C133.2 92.6131 133.2 93.8131 134.4 95.0131C135.734 96.3465 136.667 95.9465 138.934 93.8131C141.467 91.1465 142 91.1465 143.334 93.0131C144.667 94.8798 145.6 94.4798 151.2 90.2131C158.934 84.3465 162.8 83.6798 159.467 88.7465C155.067 95.4131 158.534 95.1465 166.133 88.0798C173.6 81.2798 177.734 80.8798 172.667 87.5465C171.6 88.8798 170.667 90.8798 170.667 91.9465C170.667 92.8798 169.2 95.1465 167.334 96.8798C163.333 100.613 163.067 102.346 166.534 103.413C170.133 104.48 187.067 101.68 199.334 97.8131C210.8 94.2131 248.667 76.4798 261.334 68.7465C265.6 66.2131 269.334 64.0798 269.734 64.0798C270.267 64.0798 266.134 70.3465 260.667 77.8131C255.2 85.4131 250.667 92.3465 250.667 93.1465C250.667 96.2131 252.8 94.7465 255.334 89.9465C256.8 87.2798 260.8 83.2798 264.667 80.8798C274.934 74.3465 275.6 74.0798 272.134 77.8131C268.8 81.4131 269.067 85.4131 272.667 85.4131C275.867 85.4131 285.333 80.2131 286.267 78.0798C287.333 75.1465 289.2 75.6798 288.4 78.7465C287.067 83.5465 291.6 83.2798 298.667 78.0798C305.867 72.7465 309.867 72.7465 303.333 78.0798C297.333 82.7465 300.4 83.6798 308 79.5465L314.667 75.9465L314.267 79.0131C313.867 83.6798 320.134 83.9465 326 79.5465C331.2 75.5465 332 75.4131 332 78.0798C332 80.7465 333.734 80.6131 337.467 77.5465C339.867 75.5465 341.2 75.4131 343.6 76.4798C345.867 77.4131 348.134 77.2798 352.667 75.5465C356 74.2131 358.667 72.6131 358.667 71.8131C358.667 71.0131 357.6 70.8798 356.4 71.4131C355.067 71.9465 351.734 72.6131 348.8 73.0131C344.934 73.6798 343.334 73.2798 342.4 71.5465C340.534 68.3465 338 68.8798 327.867 74.8798C318.267 80.6131 313.867 80.8798 320.267 75.4131C322.267 73.8131 324.667 72.0798 325.6 71.6798C326.8 71.2798 326.934 70.6131 326 69.6798C325.067 68.6131 322.8 69.1465 318.267 71.5465C310.667 75.2798 310.667 75.2798 310.667 72.7465C310.667 69.5465 305.067 70.3465 298.267 74.7465C290.8 79.5465 290.667 79.5465 290.667 76.0798C290.667 74.6131 289.067 72.6131 286.8 71.4131C283.333 69.6798 282.267 69.6798 277.333 71.4131C274.267 72.4798 270 74.6131 267.734 76.2131C262.667 79.8131 263.067 78.8798 270.534 67.9465C276.267 59.8131 286.8 51.2798 300.8 43.6798C308.267 39.5465 345.467 26.8798 357.067 24.4798C368.8 21.9465 372.134 19.2798 361.734 20.8798C354.667 21.8131 331.467 29.0131 316.134 34.8798C310.667 37.0131 305.867 38.4798 305.6 38.0798C305.333 37.8131 307.467 34.7465 310.534 31.2798C315.867 25.1465 317.6 20.0798 314.267 20.0798C313.334 20.0798 309.6 22.0798 306 24.6132ZM313.334 23.8131C313.334 24.3465 310.4 28.3465 306.8 32.6132C302.267 38.3465 298.667 41.1465 294.134 43.0131C288.267 45.2798 288 45.2798 289.2 43.1465C290.534 40.6131 310.8 22.8798 312.4 22.7465C312.934 22.7465 313.334 23.1465 313.334 23.8131ZM82.5335 39.5465C66.6668 68.6131 50.2668 92.2131 41.2002 99.0131C37.4668 101.813 33.8668 104.08 33.2002 104.08C29.3335 104.08 36.1335 89.5465 48.5335 71.4131C56.0002 60.4798 84.6668 29.6798 86.1335 31.1465C86.5335 31.4131 84.8002 35.2798 82.5335 39.5465ZM105.6 49.1465C98.9335 60.3465 76.0002 87.0131 76.0002 83.5465C76.0002 83.0131 80.0002 76.7465 84.8002 69.4131C93.4668 56.3465 109.067 37.9465 110.4 39.2798C110.667 39.6798 108.534 44.0798 105.6 49.1465ZM290 48.6131C287.867 50.4798 284.267 52.8798 282.267 54.0798C278.534 56.3465 278.534 56.3465 280.267 53.4131C281.2 51.8131 284.4 49.2798 287.333 47.9465C294.4 44.7465 294.8 44.7465 290 48.6131ZM277.067 55.0131C274.8 57.9465 266.4 63.4131 251.2 71.6798C238.8 78.4798 228.267 84.0798 227.734 84.0798C227.334 84.0798 227.867 82.2131 228.934 79.9465C230.667 76.4798 243.2 67.0131 248.667 64.8798C249.467 64.6131 249.734 64.0798 249.334 63.6798C248.267 62.4798 233.334 70.3465 229.334 73.9465C227.467 75.6798 224.534 77.5465 222.8 78.0798L219.467 79.1465L223.2 74.6131C225.334 72.0798 228.934 69.4131 231.2 68.4798C248.134 61.9465 278.267 51.0131 279.2 50.8798C279.867 50.7465 278.8 52.7465 277.067 55.0131ZM75.8668 57.6798C73.6002 62.0798 64.0002 76.0798 63.3335 76.0798C63.0668 76.0798 65.8668 71.2798 69.6002 65.4131C76.1335 55.2798 79.2002 51.4131 75.8668 57.6798ZM220 74.6131C219.334 76.0798 218 77.6798 217.334 78.0798C215.334 79.2798 217.067 81.4131 219.867 81.4131C221.734 81.4131 222.134 82.2131 221.734 84.4798C221.2 87.1465 218.8 88.4798 207.6 92.6131C188.934 99.5465 168 103.413 168 100.08C168 97.9465 182.667 89.1465 186.8 88.8798C188.8 88.7465 191.6 87.5465 192.934 86.3465C194.4 85.1465 196.534 84.4798 198.267 84.8798C200.267 85.4131 202.534 84.3465 206.267 81.0131C210.267 77.4131 216.934 73.4131 221.067 72.2131C221.2 72.0798 220.8 73.2798 220 74.6131ZM285.067 75.0131C284.267 77.2798 276.134 82.7465 273.734 82.7465C270.4 82.7465 272.667 79.5465 278.134 76.4798C284.134 73.0131 285.734 72.7465 285.067 75.0131ZM195.867 79.5465C194.934 80.6131 191.734 82.7465 188.8 84.2131L183.334 86.8798L188.267 82.2131C193.334 77.2798 199.467 75.1465 195.867 79.5465Z" fill="white"/>
</svg>
