<svg width="146" height="147" viewBox="0 0 146 147" fill="none" xmlns="http://www.w3.org/2000/svg">
<path d="M68.8182 0.5H76.0909V19.7727H68.8182V0.5Z" fill="white"/>
<path d="M107.955 32.5441L121.636 18.8636L126.862 24.09L113.182 37.7705L107.955 32.5441Z" fill="white"/>
<path d="M23.9547 19.2722L37.5906 32.9081L32.4083 38.0905L18.7724 24.4545L23.9547 19.2722Z" fill="white"/>
<path fill-rule="evenodd" clip-rule="evenodd" d="M73.0903 119.864C98.6464 119.864 119.364 99.1059 119.364 73.5C119.364 47.8941 98.6464 27.1364 73.0903 27.1364C71.6189 27.1364 70.1636 27.2052 68.7273 27.3398V69.7727H34.9064C36.321 55.1362 45.9796 42.9111 59.1818 37.7978V29.2672C40.4219 35.1834 26.8169 52.7498 26.8169 73.5C26.8169 74.7547 26.8667 75.9977 26.9643 77.2273L68.7273 77.2273V111.537C54.5008 109.957 42.6272 100.578 37.4772 87.7727H29.051C35.0584 106.395 52.5045 119.864 73.0903 119.864ZM76 111.657V35.3431C95.7353 36.8733 111.273 53.3722 111.273 73.5C111.273 93.6278 95.7353 110.127 76 111.657Z" fill="white"/>
<path d="M32.4551 108.955L18.8182 122.592L24.0446 127.818L37.6815 114.181L32.4551 108.955Z" fill="white"/>
<path d="M76.7273 127.227H69.4546V146.5H76.7273V127.227Z" fill="white"/>
<path d="M146 69.8636H126.727V77.1364H146V69.8636Z" fill="white"/>
<path d="M0 70.2264H19.2727V77.4991H0V70.2264Z" fill="white"/>
<path d="M127.227 122.545L113.591 108.909L108.409 114.091L122.045 127.727L127.227 122.545Z" fill="white"/>
<path d="M76.0001 111.638V35.3238C95.7353 36.854 111.273 53.3529 111.273 73.4807C111.273 93.6086 95.7353 110.107 76.0001 111.638Z" fill="#680000"/>
</svg>
